<?xml version="1.0" encoding="UTF-8"?>
<!DOCTYPE svg PUBLIC "-//W3C//DTD SVG 1.1//EN" "http://www.w3.org/Graphics/SVG/1.1/DTD/svg11.dtd">
<!-- Creator: CorelDRAW 2020 (64-Bit) -->
<svg xmlns="http://www.w3.org/2000/svg" xml:space="preserve" width="46.462mm" height="46.4619mm" version="1.1" style="shape-rendering:geometricPrecision; text-rendering:geometricPrecision; image-rendering:optimizeQuality; fill-rule:evenodd; clip-rule:evenodd"
viewBox="0 0 7033.44 7033.42"
 xmlns:xlink="http://www.w3.org/1999/xlink"
 xmlns:xodm="http://www.corel.com/coreldraw/odm/2003">
 <defs>
  <style type="text/css">
   <![CDATA[
    .fil0 {fill:#EB2E2A}
   ]]>
  </style>
 </defs>
 <g id="Слой_x0020_1">
  <metadata id="CorelCorpID_0Corel-Layer"/>
  <path class="fil0" d="M168.02 168.02l0 -0.02c224,-223.98 590.49,-223.98 814.46,-0.02l2534.25 2534.25 2534.25 -2534.25c223.97,-223.97 590.46,-223.97 814.46,0.02l0 0.02c223.98,223.98 223.98,590.47 0.02,814.44l-2534.25 2534.25 2534.26 2534.26c223.97,223.97 223.97,590.46 -0.02,814.46l-0.02 0c-223.98,223.98 -590.47,223.98 -814.44,0.02l-2534.26 -2534.26 -2534.26 2534.26c-223.97,223.97 -590.46,223.97 -814.44,-0.02l-0.02 0c-223.98,-224 -223.98,-590.49 -0.02,-814.46l2534.26 -2534.26 -2534.25 -2534.25c-223.97,-223.97 -223.97,-590.46 0.02,-814.44z"/>
 </g>
</svg>
