<?xml version="1.0" encoding="UTF-8"?>
<!DOCTYPE svg PUBLIC "-//W3C//DTD SVG 1.1//EN" "http://www.w3.org/Graphics/SVG/1.1/DTD/svg11.dtd">
<!-- Creator: CorelDRAW 2020 (64-Bit) -->
<svg xmlns="http://www.w3.org/2000/svg" xml:space="preserve" width="54.4521mm" height="51.3571mm" version="1.1" style="shape-rendering:geometricPrecision; text-rendering:geometricPrecision; image-rendering:optimizeQuality; fill-rule:evenodd; clip-rule:evenodd"
viewBox="0 0 2079.51 1961.32"
 xmlns:xlink="http://www.w3.org/1999/xlink"
 xmlns:xodm="http://www.corel.com/coreldraw/odm/2003">
 <defs>
  <style type="text/css">
   <![CDATA[
    .fil0 {fill:#1390EB}
    .fil1 {fill:#EB2E2A}
   ]]>
  </style>
 </defs>
 <g id="Слой_x0020_1">
  <metadata id="CorelCorpID_0Corel-Layer"/>
  <path class="fil0" d="M887.92 1898.91c490.38,0 887.92,-397.54 887.92,-887.92 0,-490.38 -397.54,-887.92 -887.92,-887.92 -490.38,0 -887.92,397.54 -887.92,887.92 0,490.38 397.54,887.92 887.92,887.92zm0 -294.84c327.55,0 593.09,-265.54 593.09,-593.09 0,-327.55 -265.54,-593.09 -593.09,-593.09 -327.55,0 -593.09,265.54 -593.09,593.09 0,327.55 265.54,593.09 593.09,593.09z"/>
  <path class="fil1" d="M147.66 257.75l0 -0c48.35,-63.62 139.96,-76.11 203.58,-27.76l719.85 547.09 547.09 -719.85c48.35,-63.62 139.96,-76.11 203.58,-27.76l0 0c63.62,48.35 76.11,139.96 27.76,203.58l-547.09 719.85 719.85 547.09c63.62,48.35 76.11,139.96 27.76,203.58l-0 0c-48.35,63.62 -139.96,76.11 -203.58,27.76l-719.85 -547.09 -547.09 719.85c-48.35,63.62 -139.96,76.11 -203.59,27.76l-0 -0c-63.62,-48.35 -76.11,-139.96 -27.76,-203.58l547.09 -719.85 -719.85 -547.09c-63.62,-48.35 -76.11,-139.96 -27.76,-203.59z"/>
  <path class="fil0" d="M887.92 1898.91c490.38,0 887.92,-397.54 887.92,-887.92 0,-75.25 -9.4,-148.29 -27.02,-218.07l-286.08 71.52c11.92,46.87 18.26,95.97 18.26,146.55 0,327.55 -265.54,593.09 -593.09,593.09 -278.89,0 -512.78,-192.52 -576.13,-451.9l-286.08 71.52c95.31,387.65 445.16,675.21 862.21,675.21z"/>
 </g>
</svg>
